<svg width="20" height="17" viewBox="0 0 20 17" fill="none" xmlns="http://www.w3.org/2000/svg">
<path d="M6.35156 0.583374C8.22188 1.05837 9.46875 2.40421 9.46875 3.90837C9.46875 5.49171 8.22188 6.83754 6.35156 7.31254V16.0209C6.35156 16.2584 6.14375 16.4167 5.83203 16.4167H3.75391C3.44219 16.4167 3.23438 16.2584 3.23438 15.9417V7.23337C1.36406 6.75837 0.117188 5.41254 0.117188 3.90837C0.117188 2.40421 1.36406 1.05837 3.23438 0.583374V3.51254H6.35156V0.583374ZM18.4047 9.29171L19.8594 10.408L13.0743 15.625L9.46875 12.8542L10.9234 11.738L13.0743 13.3846L18.4047 9.29171Z" fill="#E27437"/>
</svg>
