<svg width="21" height="21" viewBox="0 0 21 21" fill="none" xmlns="http://www.w3.org/2000/svg">
<g clip-path="url(#clip0_117_31)">
<path d="M14.8376 0.750921C15.2584 0.774611 15.5831 1.09923 15.5719 1.48508V2.51997C18.9149 2.81186 20.625 4.47477 20.625 7.46446V15.7348C20.625 19.0606 18.5187 20.75 14.3738 20.75H6.87621C2.73128 20.75 0.625 19.0606 0.625 15.7348V7.46446C0.625 5.47428 1.37862 4.05019 2.92452 3.21874L3.03295 3.16312C3.25705 3.06899 3.51989 3.07761 3.73835 3.19176C3.99323 3.32494 4.14374 3.57876 4.12688 3.84698C4.11002 4.1152 3.9287 4.35155 3.65882 4.45708C2.63466 5.00548 2.15157 5.96077 2.15157 7.46446V7.72981H16.2482C16.6697 7.72981 17.0115 8.04266 17.0115 8.42859C17.0115 8.81451 16.6697 9.12736 16.2482 9.12736H2.15157V15.7348C2.15157 18.2733 3.52355 19.3259 6.87621 19.3436H14.3738C17.6781 19.3436 19.0888 18.2645 19.0888 15.7259V7.45561C19.0888 5.2443 18.0163 4.17403 15.5719 3.91752V4.58975C15.5155 4.94806 15.1728 5.20964 14.7777 5.19599C14.3825 5.18234 14.0623 4.89786 14.0356 4.53668V1.42316L14.0498 1.31256C14.0812 1.16762 14.1624 1.0345 14.2829 0.933413C14.4337 0.807059 14.6335 0.741322 14.8376 0.750921ZM15.2772 14.947L15.4002 14.9541C15.6112 14.9779 15.8091 15.065 15.9618 15.2034C16.1451 15.3696 16.2482 15.5959 16.2482 15.832C16.2482 16.3206 15.8156 16.7166 15.282 16.7166C14.7484 16.7166 14.3158 16.3206 14.3158 15.832C14.3158 15.3435 14.7484 14.9475 15.282 14.9475L15.2772 14.947ZM10.6443 14.9475L10.7655 14.9544C11.2419 15.009 11.6105 15.3811 11.6105 15.832C11.6105 16.3206 11.1779 16.7166 10.6443 16.7166C10.1107 16.7166 9.67814 16.3206 9.67814 15.832C9.67814 15.3435 10.1107 14.9475 10.6443 14.9475ZM6.01167 14.947L6.13454 14.9541C6.3455 14.9779 6.54335 15.065 6.69609 15.2034C6.87938 15.3696 6.98249 15.5959 6.98249 15.832C6.98249 16.3206 6.54991 16.7166 6.0163 16.7166C5.4827 16.7166 5.05012 16.3206 5.05012 15.832C5.05012 15.3435 5.4827 14.9475 6.0163 14.9475L6.01167 14.947ZM15.2772 11.365L15.4002 11.3718C15.6112 11.3956 15.8091 11.4827 15.9618 11.6211C16.1451 11.7873 16.2482 12.0136 16.2482 12.2497C16.2482 12.7382 15.8156 13.1343 15.282 13.1343C14.7484 13.1343 14.3158 12.7382 14.3158 12.2497C14.3158 11.7612 14.7484 11.3652 15.282 11.3652L15.2772 11.365ZM10.6443 11.3652L10.7655 11.3721C11.2419 11.4267 11.6105 11.7988 11.6105 12.2497C11.6105 12.7382 11.1779 13.1343 10.6443 13.1343C10.1107 13.1343 9.67814 12.7382 9.67814 12.2497C9.67814 11.7612 10.1107 11.3652 10.6443 11.3652ZM6.01167 11.365L6.13454 11.3718C6.3455 11.3956 6.54335 11.4827 6.69609 11.6211C6.87938 11.7873 6.98249 12.0136 6.98249 12.2497C6.98249 12.7382 6.54991 13.1343 6.0163 13.1343C5.4827 13.1343 5.05012 12.7382 5.05012 12.2497C5.05012 11.7612 5.4827 11.3652 6.0163 11.3652L6.01167 11.365ZM6.44626 0.856447C6.83976 0.856447 7.17045 1.12709 7.21437 1.48508V2.44921H11.5815C12.0031 2.44921 12.3448 2.76206 12.3448 3.14798C12.3448 3.5339 12.0031 3.84675 11.5815 3.84675H7.19505V4.54553C7.19507 4.7324 7.11332 4.91149 6.96808 5.04279C6.82284 5.17409 6.62621 5.24667 6.4221 5.2443L6.31049 5.23427C5.94682 5.17674 5.6732 4.88445 5.67807 4.53668V1.48508L5.69965 1.38048C5.78883 1.07566 6.09211 0.856447 6.44626 0.856447Z" fill="#FF823C"/>
</g>
<defs>
<clipPath id="clip0_117_31">
<rect width="21" height="21" fill="white"/>
</clipPath>
</defs>
</svg>
