<svg width="21" height="21" viewBox="0 0 21 21" fill="none" xmlns="http://www.w3.org/2000/svg">
<g clip-path="url(#clip0_117_25)">
<path fill-rule="evenodd" clip-rule="evenodd" d="M4.375 6.125C4.375 5.64175 4.76676 5.25 5.25 5.25H10.5C10.9833 5.25 11.375 5.64175 11.375 6.125V9.625C11.375 10.1083 10.9833 10.5 10.5 10.5H5.25C4.76676 10.5 4.375 10.1083 4.375 9.625V6.125ZM6.125 7V8.75H9.625V7H6.125Z" fill="#E27437"/>
<path d="M5.25 13.125C5.25 12.6417 5.64175 12.25 6.125 12.25H9.625C10.1083 12.25 10.5 12.6417 10.5 13.125C10.5 13.6083 10.1083 14 9.625 14H6.125C5.64175 14 5.25 13.6083 5.25 13.125Z" fill="#E27437"/>
<path fill-rule="evenodd" clip-rule="evenodd" d="M1.75 18.375V3.5C1.75 2.04988 2.92488 0.875 4.375 0.875H11.375C12.8251 0.875 14 2.04988 14 3.5V12.25H15.75C16.7165 12.25 17.5 13.0335 17.5 14V15.0475C17.5 15.1938 17.5731 15.3304 17.6948 15.4115C17.8418 15.5095 18.0332 15.5095 18.1801 15.4115C18.3018 15.3304 18.375 15.1938 18.375 15.0475V11.375H16.9408C15.8594 11.375 15.0368 10.404 15.2146 9.3373L15.5063 7.5873C15.6469 6.74348 16.377 6.125 17.2324 6.125H17.9489L16.5203 4.82694C16.1626 4.50196 16.1361 3.94858 16.4611 3.59091C16.7861 3.23326 17.3394 3.20677 17.6971 3.53174L19.5519 5.217C19.8196 5.46031 20.0029 5.77819 20.0816 6.125H20.125V15.0475C20.125 15.779 19.7594 16.462 19.1509 16.8676C18.4161 17.3575 17.4589 17.3575 16.724 16.8676C16.1155 16.462 15.75 15.779 15.75 15.0475V14H14V18.375C14.4833 18.375 14.875 18.7667 14.875 19.25C14.875 19.7333 14.4833 20.125 14 20.125H1.75C1.26675 20.125 0.875 19.7333 0.875 19.25C0.875 18.7667 1.26675 18.375 1.75 18.375ZM3.5 3.5C3.5 3.01637 3.89137 2.625 4.375 2.625H11.375C11.8586 2.625 12.25 3.01637 12.25 3.5V18.375H3.5V3.5ZM18.375 7.875V9.625H16.9408L17.2324 7.875H18.375Z" fill="#E27437"/>
</g>
<defs>
<clipPath id="clip0_117_25">
<rect width="21" height="21" fill="white"/>
</clipPath>
</defs>
</svg>
