<svg width="21" height="21" viewBox="0 0 21 21" fill="none" xmlns="http://www.w3.org/2000/svg">
<g clip-path="url(#clip0_117_29)">
<path fill-rule="evenodd" clip-rule="evenodd" d="M20.125 10.5C20.125 15.8157 15.8157 20.125 10.5 20.125C5.18426 20.125 0.875 15.8157 0.875 10.5C0.875 5.18426 5.18426 0.875 10.5 0.875C15.8157 0.875 20.125 5.18426 20.125 10.5ZM18.327 11.375C18.1202 13.245 17.2588 14.9176 15.9769 16.1586C15.7741 15.7148 15.4852 15.3161 15.1274 14.9846C14.4459 14.3526 13.5531 14 12.621 14H8.37899C7.44646 14 6.55378 14.3529 5.87169 14.9846C5.51301 15.3169 5.22526 15.7157 5.02269 16.1582C3.74105 14.9173 2.87976 13.2448 2.67306 11.375H3.9375C4.42074 11.375 4.8125 10.9833 4.8125 10.5C4.8125 10.0167 4.42074 9.625 3.9375 9.625H2.67306C2.76192 8.82123 2.97175 8.05389 3.28393 7.34164L4.55808 8.08065C4.97611 8.32311 5.51153 8.18078 5.75398 7.76275C5.99644 7.34472 5.85411 6.8093 5.43609 6.56684L4.16063 5.82708C4.62966 5.19186 5.19187 4.62964 5.8271 4.16062L6.56686 5.43607C6.80931 5.8541 7.34474 5.99643 7.76276 5.75397C8.18079 5.51152 8.32311 4.97609 8.08066 4.55807L7.34166 3.28392C8.0539 2.97174 8.82123 2.76192 9.625 2.67306V4.375C9.625 4.85824 10.0167 5.25 10.5 5.25C10.9833 5.25 11.375 4.85824 11.375 4.375V2.67306C12.179 2.76194 12.9465 2.97186 13.6589 3.28419L12.9201 4.55807C12.6776 4.97609 12.82 5.51151 13.2381 5.75397C13.656 5.99643 14.1914 5.8541 14.4339 5.43607L15.1735 4.16103C15.8086 4.63009 16.3708 5.19235 16.8397 5.82761L12.2902 8.5801C11.8212 8.14267 11.1919 7.875 10.5 7.875C9.05021 7.875 7.875 9.05021 7.875 10.5C7.875 11.9498 9.05021 13.125 10.5 13.125C11.9498 13.125 13.125 11.9498 13.125 10.5C13.125 10.3764 13.1164 10.2547 13.0999 10.1356L17.7165 7.34254C18.0284 8.05454 18.2382 8.82158 18.327 9.625H17.0625C16.5792 9.625 16.1875 10.0167 16.1875 10.5C16.1875 10.9833 16.5792 11.375 17.0625 11.375H18.327ZM14.4231 16.9749C14.4621 17.0732 14.5169 17.1604 14.5834 17.235C13.3928 17.9584 11.995 18.375 10.5 18.375C9.00471 18.375 7.6068 17.9582 6.41602 17.2346C6.48204 17.1606 6.5365 17.074 6.57541 16.9765C6.68324 16.7063 6.84876 16.465 7.06081 16.2686C7.42171 15.9344 7.89052 15.75 8.37899 15.75H12.621C13.1096 15.75 13.5786 15.9349 13.9383 16.2686C14.1512 16.4657 14.3167 16.7069 14.4231 16.9749ZM10.5 11.375C10.9833 11.375 11.375 10.9833 11.375 10.5C11.375 10.0167 10.9833 9.625 10.5 9.625C10.0167 9.625 9.625 10.0167 9.625 10.5C9.625 10.9833 10.0167 11.375 10.5 11.375Z" fill="#E27437"/>
</g>
<defs>
<clipPath id="clip0_117_29">
<rect width="21" height="21" fill="white"/>
</clipPath>
</defs>
</svg>
