<svg width="19" height="18" viewBox="0 0 19 18" fill="none" xmlns="http://www.w3.org/2000/svg">
<path d="M16.7708 10.4243H14.7708V8.53541H16.7708M17.7708 15.1465V17.0354H13.7708V15.1465H14.7708V13.2576H13.7708V11.3687H16.7708V15.1465M16.6908 0.979855C16.587 0.702769 16.3946 0.46301 16.1402 0.293792C15.8858 0.124575 15.5819 0.034278 15.2708 0.0354109H4.27075C3.95957 0.034278 3.65572 0.124575 3.4013 0.293792C3.14688 0.46301 2.95448 0.702769 2.85075 0.979855L0.770752 6.64652V14.2021C0.770752 14.4526 0.876109 14.6928 1.06365 14.8699C1.25118 15.047 1.50554 15.1465 1.77075 15.1465H2.77075C3.03597 15.1465 3.29032 15.047 3.47786 14.8699C3.66539 14.6928 3.77075 14.4526 3.77075 14.2021V13.2576H8.77075C8.77075 11.5043 9.50825 9.82269 10.821 8.58287C12.1338 7.34304 13.9142 6.64652 15.7708 6.64652C16.8094 6.64269 17.8354 6.86232 18.7708 7.28874V6.64652M4.27075 10.4243C3.97408 10.4243 3.68407 10.3412 3.4374 10.1855C3.19072 10.0299 2.99846 9.80862 2.88493 9.54976C2.7714 9.2909 2.7417 9.00606 2.79957 8.73125C2.85745 8.45644 3.00031 8.20402 3.21009 8.00589C3.41987 7.80777 3.68714 7.67284 3.97812 7.61818C4.26909 7.56352 4.57069 7.59157 4.84478 7.6988C5.11887 7.80602 5.35313 7.9876 5.51796 8.22057C5.68278 8.45354 5.77075 8.72744 5.77075 9.00763C5.77075 9.38335 5.61272 9.74369 5.33141 10.0094C5.05011 10.275 4.66858 10.4243 4.27075 10.4243ZM2.77075 5.70207L4.27075 1.45208H15.2708L16.7708 5.70207H2.77075Z" fill="white"/>
</svg>
