<svg width="18" height="16" viewBox="0 0 18 16" fill="none" xmlns="http://www.w3.org/2000/svg">
<path d="M10.7143 4.44444H9.42857V8.88889L13.0971 11.1467L13.7143 10.0711L10.7143 8.22222V4.44444ZM10.2857 0C8.23976 0 6.2776 0.842855 4.83089 2.34315C3.38418 3.84344 2.57143 5.87827 2.57143 8H0L3.39429 11.5822L6.85714 8H4.28571C4.28571 6.34976 4.91786 4.76712 6.04307 3.60022C7.16829 2.43333 8.69442 1.77778 10.2857 1.77778C11.877 1.77778 13.4031 2.43333 14.5284 3.60022C15.6536 4.76712 16.2857 6.34976 16.2857 8C16.2857 9.65024 15.6536 11.2329 14.5284 12.3998C13.4031 13.5667 11.877 14.2222 10.2857 14.2222C8.63143 14.2222 7.13143 13.52 6.05143 12.3911L4.83429 13.6533C6.23143 15.1111 8.14286 16 10.2857 16C12.3317 16 14.2938 15.1571 15.7405 13.6569C17.1872 12.1566 18 10.1217 18 8C18 5.87827 17.1872 3.84344 15.7405 2.34315C14.2938 0.842855 12.3317 0 10.2857 0Z" fill="white"/>
</svg>
