<svg width="19" height="17" viewBox="0 0 19 17" fill="none" xmlns="http://www.w3.org/2000/svg">
<path d="M4.69088 1.17884H18.3125V3.31217H4.69088V1.17884ZM4.69088 9.71217V7.57884H18.3125V9.71217H4.69088ZM1.77196 0.645508C2.15903 0.645508 2.53025 0.814079 2.80395 1.11414C3.07766 1.4142 3.23142 1.82116 3.23142 2.24551C3.23142 2.66985 3.07766 3.07682 2.80395 3.37688C2.53025 3.67694 2.15903 3.84551 1.77196 3.84551C1.38489 3.84551 1.01367 3.67694 0.739966 3.37688C0.466264 3.07682 0.3125 2.66985 0.3125 2.24551C0.3125 1.82116 0.466264 1.4142 0.739966 1.11414C1.01367 0.814079 1.38489 0.645508 1.77196 0.645508ZM1.77196 7.04551C2.15903 7.04551 2.53025 7.21408 2.80395 7.51414C3.07766 7.8142 3.23142 8.22116 3.23142 8.64551C3.23142 9.06985 3.07766 9.47682 2.80395 9.77688C2.53025 10.0769 2.15903 10.2455 1.77196 10.2455C1.38489 10.2455 1.01367 10.0769 0.739966 9.77688C0.466264 9.47682 0.3125 9.06985 0.3125 8.64551C0.3125 8.22116 0.466264 7.8142 0.739966 7.51414C1.01367 7.21408 1.38489 7.04551 1.77196 7.04551ZM4.69088 16.1122V13.9788H18.3125V16.1122H4.69088ZM1.77196 13.4455C2.15903 13.4455 2.53025 13.6141 2.80395 13.9141C3.07766 14.2142 3.23142 14.6212 3.23142 15.0455C3.23142 15.4699 3.07766 15.8768 2.80395 16.1769C2.53025 16.4769 2.15903 16.6455 1.77196 16.6455C1.38489 16.6455 1.01367 16.4769 0.739966 16.1769C0.466264 15.8768 0.3125 15.4699 0.3125 15.0455C0.3125 14.6212 0.466264 14.2142 0.739966 13.9141C1.01367 13.6141 1.38489 13.4455 1.77196 13.4455Z" fill="white"/>
</svg>
